<svg width="452" height="456" viewBox="0 0 452 456" fill="none" xmlns="http://www.w3.org/2000/svg">
<g id="TheresaKnott-Motobike 1">
<g id="g2786">
<path id="path27199" fill-rule="evenodd" clip-rule="evenodd" d="M396.945 109.207L397.785 115.077L407.875 122.887L410.115 131.817L412.355 132.937L431.685 118.707C439.445 117.347 445.785 116.187 444.015 116.187L442.615 113.117L409.275 109.767L396.945 109.207V109.207Z" fill="url(#paint0_radial_2_2)"/>
<path id="path25431" fill-rule="evenodd" clip-rule="evenodd" d="M231.365 33.9242C231.365 33.9242 232.945 29.5822 237.305 27.6082C241.665 25.6342 273.755 17.7392 276.925 17.7392C280.095 17.7392 318.125 16.1605 318.125 16.1605L318.915 24.0552L263.845 26.8192C263.845 26.8192 255.525 28.7922 252.355 29.5822C249.185 30.3712 242.855 35.1082 242.855 35.1082L231.365 33.9242V33.9242Z" fill="url(#paint1_linear_2_2)"/>
<path id="path24546" fill-rule="evenodd" clip-rule="evenodd" d="M224.625 110.897L236.115 116.027L261.475 47.7402L261.865 33.5292L248.005 31.9502L242.455 35.8982L224.625 110.897V110.897Z" fill="url(#paint2_linear_2_2)" stroke="black" stroke-width="0.98496"/>
<path id="path23663" fill-rule="evenodd" clip-rule="evenodd" d="M164.805 134.977L135.095 208.797L153.315 213.137L178.675 145.247L164.805 134.977V134.977Z" fill="url(#paint3_linear_2_2)"/>
<path id="path8703" fill-rule="evenodd" clip-rule="evenodd" d="M397.735 112.137C397.735 112.137 375.845 121.757 371.985 131.377C368.125 140.997 355.255 194.867 351.395 199.997C347.535 205.127 344.955 213.457 344.955 213.457C344.955 213.457 346.425 234.087 345.605 244.237C357.285 247.647 362.335 248.727 362.335 248.727C362.335 248.727 355.895 219.877 359.115 215.387C362.335 210.897 365.555 208.327 365.555 208.327C365.555 208.327 369.925 208.167 388.725 208.967C404.975 194.547 424.765 173.697 430.555 150.617C436.345 127.527 432.485 117.907 432.485 117.907C432.485 117.907 418.325 123.037 414.465 128.167C410.605 133.297 409.935 132.227 409.935 132.227C409.935 132.227 410.605 126.247 406.095 121.757C401.595 117.267 397.085 112.137 397.735 112.137V112.137Z" fill="#C53034"/>
<path id="path8623" fill-rule="evenodd" clip-rule="evenodd" d="M128.265 126.507C128.265 126.507 154.135 119.507 161.535 122.087C168.925 124.667 197.385 137.187 201.455 141.237C205.515 145.287 227.325 166.657 229.545 173.647C231.765 180.647 239.895 227.057 239.895 227.057L236.935 229.267C236.935 229.267 216.895 224.857 215.125 223.737C211.065 221.167 204.035 204.217 204.405 197.587C204.775 190.957 193.315 169.597 189.995 165.547C186.665 161.497 168.925 137.927 158.205 133.137C147.485 128.347 129.005 127.247 128.265 126.507Z" fill="#7D0000"/>
<path id="path5804" fill-rule="evenodd" clip-rule="evenodd" d="M57.2769 148.047C58.5159 143.827 86.2379 118.557 105.545 112.137C124.855 105.727 158.965 101.879 176.985 110.217C195.005 118.557 219.265 134.397 229.115 154.377C237.355 171.117 241.715 199.617 241.345 211.537C241.055 220.507 239.415 230.137 239.415 230.137C239.415 230.137 234.545 224.007 230.395 196.787C229.205 188.947 227.665 170.897 210.535 152.087C192.865 132.697 164.375 122.367 154.735 122.867C133.245 123.967 112.625 132.017 101.685 137.147C90.7429 142.277 66.8479 155.827 61.0429 153.267C57.2759 151.597 56.1389 151.937 57.2769 148.047V148.047Z" fill="#C53034"/>
<path id="path8699" fill-rule="evenodd" clip-rule="evenodd" d="M275.215 93.7932C275.215 93.7932 280.045 102.041 280.045 108.227V121.977C280.045 121.977 284.875 111.667 289.015 112.347C293.155 113.037 294.535 110.977 302.115 118.537C309.705 126.097 331.565 141.647 330.215 144.137C327.425 149.227 321.435 149.107 321.435 149.107C321.435 149.107 310.395 142.587 306.945 140.527C303.495 138.467 299.355 137.777 299.355 137.777L321.435 162.527C321.435 162.527 343.315 202.997 343.315 209.877C343.315 216.747 346.615 219.927 352.135 210.987C357.655 202.057 366.955 161.837 369.025 149.467C371.095 137.097 377.655 129.037 388.005 122.157C398.355 115.287 402.825 110.287 396.615 108.227C390.405 106.164 367.645 107.537 367.645 107.537C367.645 107.537 327.375 117.237 319.105 115.857C310.825 114.487 290.225 100.051 287.465 96.6152C284.705 93.1782 276.595 93.1062 275.215 93.7932V93.7932Z" fill="#343034"/>
<path id="path8705" fill-rule="evenodd" clip-rule="evenodd" d="M167.295 107.427L184.855 47.1612C184.855 47.1612 204.365 35.9832 216.555 35.4972C228.745 35.0112 244.845 35.9832 246.795 38.8992C248.745 41.8152 251.185 43.2732 249.235 48.6192C247.285 53.9652 222.895 117.147 222.895 117.147L218.995 121.517L192.655 117.627L167.295 107.427V107.427Z" fill="#C53034" stroke="black" stroke-width="0.98496"/>
<path id="path8707" fill-rule="evenodd" clip-rule="evenodd" d="M262.085 32.7682C259.095 36.9332 258.735 35.7432 254.815 38.2452C253.175 40.7902 251.585 46.3222 254.935 49.5992C256.375 51.0022 263.815 47.7812 263.815 47.7812C263.815 47.7812 275.575 34.5252 282.405 29.1792C290.915 27.1832 304.425 26.2532 304.425 26.2532C304.425 26.2532 300.115 25.2962 299.955 22.3752C299.695 17.5082 303.375 14.5995 303.375 14.5995C303.375 14.5995 290.285 12.4249 279.965 16.9672C269.635 21.5092 267.885 24.6732 262.085 32.7682V32.7682Z" fill="#D23034"/>
<path id="path9582" fill-rule="evenodd" clip-rule="evenodd" d="M322.815 13.7229C322.815 13.7229 321.435 9.9427 319.705 9.9427C317.985 9.9427 316.605 17.8462 316.605 20.5967C316.605 23.3447 318.325 29.8737 321.085 29.8737C323.845 29.8737 323.845 26.4377 325.575 26.0937C327.295 25.7497 351.435 23.0007 353.165 22.6577C354.885 22.3137 358.675 20.2517 357.985 18.8767C357.295 17.5027 354.545 12.0041 354.545 12.0041L322.815 13.7224V13.7229Z" fill="#E02F2C" stroke="black" stroke-width="0.98496"/>
<path id="path10457" fill-rule="evenodd" clip-rule="evenodd" d="M180.715 25.7502C180.715 25.7502 177.955 23.6882 176.235 23.6882C174.515 23.6882 171.405 25.7502 171.405 25.7502L156.925 27.1252C156.925 27.1252 154.855 24.7192 153.475 24.7192C152.095 24.7192 148.295 28.1562 148.295 29.8742C148.295 31.5922 150.715 39.1532 152.095 39.1532C153.475 39.1532 157.615 37.0912 157.615 37.0912L171.065 36.0602C171.065 36.0602 172.445 39.1532 173.825 39.1532C175.205 39.1532 178.995 39.1532 180.375 37.4342C181.755 35.7162 178.645 35.0292 178.645 35.0292C178.645 35.0292 175.205 34.3422 174.855 32.2802C174.515 30.2182 175.895 28.1562 177.265 27.8122C178.645 27.4692 181.405 26.0942 180.715 25.7502V25.7502Z" fill="#BC2526" stroke="black" stroke-width="0.98496"/>
<path id="path11334" d="M357.295 16.4722C357.295 19.4432 355.965 21.8762 354.295 21.9682C352.615 22.0592 351.205 19.7752 351.095 16.8102C350.995 13.8453 352.235 11.2712 353.905 10.9972C355.575 10.7231 357.075 12.8484 357.275 15.7967" fill="#9B2526"/>
<path id="path11336" fill-rule="evenodd" clip-rule="evenodd" d="M241.175 217.007C256.655 217.877 274.145 220.617 277.535 219.767C280.935 218.927 286.185 216.167 287.035 211.937C287.885 207.707 280.975 204.537 280.975 204.537L259.335 151.487C259.335 151.487 255.615 151.857 255.615 148.477C255.615 145.087 260.705 137.477 263.255 133.237C265.805 129.007 266.645 124.777 266.645 124.777C266.645 124.777 251.365 121.397 247.115 121.397C242.875 121.397 233.535 125.627 233.535 125.627L236.925 117.167L225.885 110.397L219.095 122.237L192.985 118.227L211.455 133.237L215.695 125.627C215.695 125.627 223.565 127.837 227.805 131.217C232.055 134.607 228.435 134.937 228.435 134.937L222.345 146.047C222.345 146.047 236.075 163.707 236.075 173.007C236.075 182.317 241.245 191.927 241.175 217.007V217.007Z" fill="#AF0E0C"/>
<path id="path13090" d="M160.125 105.967C137.335 104.407 117.115 107.097 97.8649 116.547C87.7379 121.617 76.7139 129.187 68.5179 136.877C63.7819 141.507 55.6089 147.547 57.9999 151.927C64.9329 150.567 67.1509 145.487 74.9299 138.717C88.3139 127.067 103.345 117.187 121.395 114.957C133.095 112.847 142.515 112.607 156.915 113.367C160.215 113.547 170.155 113.987 171.345 110.707C169.875 110.117 161.635 105.817 160.125 105.967V105.967Z" fill="#FF3000"/>
<path id="path13969" d="M218.445 36.5592C209.225 37.0772 198.725 38.4342 190.795 44.0062C186.725 47.2512 182.285 52.8582 181.945 58.4262C180.345 62.3862 178.375 66.4712 177.535 70.7982C176.495 76.0602 173.775 80.8352 173.245 86.2102C172.585 91.2752 171.775 96.4682 169.035 100.891C166.655 105.24 171.135 111.107 175.835 108.287C181.315 105.676 182.395 98.9932 183.395 93.6392C184.975 85.7152 191.485 64.4472 191.515 61.2362C193.325 57.2372 195.205 51.3192 201.165 49.0282C209.625 45.7782 220.355 45.9772 229.685 48.7282C234.195 50.4862 230.925 57.5042 236.035 58.2542C242.095 58.8702 245.785 51.3372 243.295 46.3432C240.735 41.5632 238.735 40.8952 231.365 37.6552C226.135 35.8202 222.285 36.8622 218.445 36.5592V36.5592Z" fill="#FF0000"/>
<path id="path14848" d="M168.585 29.1802C166.695 28.9892 164.815 29.3382 162.945 29.5132C160.315 29.6462 157.685 29.4682 155.055 29.5812C154.005 29.5192 153.365 28.5422 152.375 28.3172C151.245 28.0142 152.965 27.4412 153.255 27.0292C153.905 26.5412 154.565 26.0572 155.285 25.6732C155.165 26.5982 154.425 27.3002 154.225 28.2112C153.875 29.2702 153.785 30.3902 153.655 31.4912C152.245 32.2732 150.835 33.0552 149.435 33.8382C149.655 32.0412 149.705 30.1302 150.615 28.5162C151.575 26.8872 153.325 26.0302 154.865 25.0572C155.945 24.4712 156.725 25.6422 157.565 26.1042C158.425 26.6972 159.475 26.3752 160.445 26.4492C162.655 26.4332 164.875 26.5582 167.075 26.3472C168.425 26.1362 169.785 26.0462 171.145 26.0482C171.665 25.9652 172.845 25.9842 171.875 26.5142C170.775 27.4022 169.685 28.2912 168.585 29.1802V29.1802Z" fill="#FF0000"/>
<path id="path15725" d="M301.935 14.7907C299.555 16.7032 296.565 17.9922 293.455 17.6942C289.545 17.3352 285.305 18.0652 281.435 18.9972C275.855 19.8362 271.945 24.9762 269.515 28.1922C266.635 30.2852 264.675 34.6762 262.055 37.1022C258.655 40.5532 255.105 40.1362 253.695 40.5882C254.255 39.5362 256.025 37.7732 254.985 38.1802C257.585 36.6282 258.805 34.3122 261.295 32.6062C263.855 30.6422 266.735 28.8992 268.405 26.0372C269.645 24.2162 271.525 22.9742 272.755 21.1332C273.925 19.2492 276.075 18.4572 277.855 17.2652C280.155 15.7943 282.045 15.955 284.735 15.6251C291.035 15.2333 291.605 15.1803 296.555 14.5576C297.945 14.7792 300.295 13.8482 301.115 14.6539C300.185 15.4657 300.375 15.4315 301.935 14.7907V14.7907Z" fill="#FF0000"/>
<path id="path16601" d="M350.135 14.3155C347.515 14.6112 344.875 14.4093 342.265 14.708C340.175 14.7079 338.085 14.8629 336.065 15.4612C331.605 16.7132 316.905 12.7008 317.775 10.9605C317.645 9.6091 320.015 9.9448 321.615 11.6888C322.825 13.1516 347.415 15.8463 320.385 16.2607C319.055 19.0822 318.855 20.8962 319.565 23.7812C319.655 24.9822 321.285 26.6722 321.965 28.8102C321.025 29.4472 319.585 30.1962 319.045 28.6642C317.975 27.2692 317.515 25.5192 317.465 23.7602C317.225 21.0352 316.855 18.4172 317.175 15.7271C316.295 12.0886 319.195 11.0477 321.395 10.3297C323.185 10.8184 321.805 14.0858 324.065 14.3961C325.485 14.8105 326.985 13.5827 328.435 13.7198C331.975 13.7842 334.955 13.3244 338.715 13.0481C340.525 12.5683 342.655 12.9787 344.495 12.9063C346.875 12.6269 349.285 12.9112 351.655 12.5496C353.245 12.4604 350.735 13.6788 350.275 14.2088L350.135 14.3155V14.3155Z" fill="#FF0000"/>
<path id="path18376" d="M174.935 109.737C179.105 111.457 183.055 113.877 186.935 116.327C190.565 118.357 194.525 119.357 198.455 120.457C203.525 122.207 206.715 126.787 210.755 129.877C213.615 133.467 218.225 135.347 220.515 139.497C223.325 143.707 225.915 148.977 227.225 154.027C229.445 158.947 230.615 162.987 233.285 167.767C235.395 171.967 238.955 190.207 241.115 194.397C243.145 200.287 238.345 227.527 239.715 223.727C239.415 218.137 234.275 192.887 233.265 186.257C231.345 181.847 229.785 168.657 225.175 158.677C217.745 148.667 212.465 137.497 208.395 134.877C204.785 131.417 201.325 127.767 197.185 124.867C193.495 122.377 176.385 114.557 171.225 113.277C170.215 112.197 173.695 111.057 174.625 109.957L174.845 109.797L174.935 109.737V109.737Z" fill="#DD0000"/>
<path id="path18379" d="M424.525 121.397C419.425 125.377 416.115 128.567 411.425 133.067C405.725 124.227 401.075 120.837 395.395 122.497C385.115 124.087 375.705 135.527 372.645 144.927C366.365 157.277 367.095 176.177 361.655 188.857C359.645 196.367 355.165 206.467 352.515 213.747C357.495 211.087 363.505 204.927 365.695 198.957C370.095 185.517 375.315 172.337 379.475 158.817C383.155 151.457 384.955 143.057 390.295 136.607C395.435 137.187 404.395 142.957 409.955 141.447C420.035 138.267 421.275 129.807 430.535 125.127C435.555 122.297 430.585 118.527 427.075 119.857C426.195 120.317 425.355 120.857 424.525 121.397V121.397Z" fill="#EE0000"/>
<path id="path19258" d="M129.365 112.297C129.365 118.637 113.445 130.837 93.4109 139.857C73.3749 148.877 56.4729 151.447 55.2399 145.657C54.0059 139.867 68.8879 127.827 88.8469 118.447C108.805 109.077 126.625 105.767 129.085 110.977" fill="url(#paint4_radial_2_2)"/>
<path id="path20145" d="M395.065 137.287C400.435 138.017 401.035 149.157 396.425 162.437C391.815 175.707 383.655 186.327 377.995 186.407C372.345 186.487 371.245 176.007 375.505 162.737C379.775 149.457 387.865 138.197 393.775 137.307" fill="url(#paint5_radial_2_2)"/>
<path id="path21022" opacity="0.89326" d="M271.685 28.2272C271.685 31.0812 268.135 36.5762 263.665 40.6342C259.195 44.6932 255.415 45.8492 255.145 43.2442C254.865 40.6392 258.185 35.2162 262.645 30.9972C267.095 26.7782 271.075 25.2892 271.615 27.6342" fill="url(#paint6_radial_2_2)"/>
<path id="path21026" opacity="0.69101" d="M301.685 18.1472C299.945 20.4112 293.765 22.6152 287.745 23.1232C281.715 23.6322 278.015 22.2612 279.395 20.0282C280.765 17.7942 286.715 15.5066 292.825 14.8608C298.935 14.2149 302.995 15.4449 301.995 17.6382" fill="url(#paint7_radial_2_2)"/>
<path id="path21903" opacity="0.12921" d="M393.575 109.307C393.575 115.647 377.655 127.847 357.625 136.867C337.585 145.887 320.685 148.447 319.455 142.667C318.215 136.877 333.095 124.827 353.055 115.457C373.015 106.084 390.835 102.775 393.295 107.987" fill="url(#paint8_radial_2_2)"/>
<path id="path22782" opacity="0.19663" d="M374.625 127.137C372.625 133.157 353.665 139.757 331.795 142.037C309.935 144.317 293.075 141.467 293.735 135.587C294.385 129.707 312.315 122.927 334.225 120.287C356.125 117.637 374.085 120.087 374.775 125.797" fill="url(#paint9_radial_2_2)"/>
<path id="path22786" opacity="0.25843" d="M348.175 118.087C361.985 116.707 363.595 127.797 351.805 143.127C340.015 158.457 319.105 172.497 304.575 174.817C290.035 177.147 287.145 166.917 298.035 151.727C308.925 136.547 329.665 121.877 344.865 118.617" fill="url(#paint10_radial_2_2)"/>
<path id="path26316" fill-rule="evenodd" clip-rule="evenodd" d="M209.575 37.8722C209.575 37.8722 210.365 32.3452 207.595 30.7662C204.815 29.1872 196.495 25.2402 187.785 25.6342C179.065 26.0292 174.705 29.9772 174.705 29.9772L177.085 35.1082C177.085 35.1082 182.235 34.3192 186.595 35.8982C190.955 37.4772 192.535 38.6612 194.915 39.8452C197.295 41.0302 209.175 37.8722 209.575 37.8722V37.8722Z" fill="url(#paint11_linear_2_2)"/>
<path id="path2601" fill-rule="evenodd" clip-rule="evenodd" d="M263.485 120.657L274.865 91.8462L274.415 83.2932L266.215 77.8912L266.675 72.9392L264.395 65.2992L257.575 59.4342C257.575 59.4342 251.205 74.2902 249.385 78.3412C247.565 82.3932 245.285 90.0452 245.285 90.0452L240.285 105.351L263.485 120.657V120.657Z" fill="url(#paint12_linear_2_2)"/>
<path id="path1702" fill-rule="evenodd" clip-rule="evenodd" d="M213.575 242.817L287.885 253.397L288.725 277.937L265.375 285.127L222.915 269.047L212.725 255.937L213.575 242.817V242.817Z" fill="url(#paint13_linear_2_2)" stroke="black" stroke-width="0.98496"/>
<path id="path2585" fill-rule="evenodd" clip-rule="evenodd" d="M239.595 229.267L241.095 225.677H245.295L263.605 249.307C263.605 249.307 262.705 271.447 263.605 273.837C264.515 276.237 267.515 288.497 267.515 288.497C267.515 288.497 258.805 266.357 258.805 262.767C258.805 259.177 257.905 252.297 257.905 252.297L239.595 229.267V229.267Z" fill="#373936" stroke="black" stroke-width="0.98496"/>
<path id="path2589" fill-rule="evenodd" clip-rule="evenodd" d="M229.985 228.667L239.895 229.267L258.205 251.997C258.205 251.997 258.205 274.737 263.605 282.217C269.015 289.697 279.225 296.577 279.225 296.577L235.085 287.607C235.085 287.607 226.075 274.137 225.175 270.247C224.275 266.357 220.675 249.007 220.675 249.007L229.985 228.667V228.667Z" fill="url(#paint14_linear_2_2)" stroke="black" stroke-width="0.98496"/>
<path id="path30950" d="M361.305 209.497C356.615 224.247 357.125 229.837 362.845 248.837C337.315 232.087 328.605 258.357 326.975 282.157C329.715 355.187 349.745 365.417 383.535 365.837C418.755 366.287 439.125 323.747 441.215 279.797L441.065 252.687C439.075 229.257 431.525 207.307 419.455 201.277C397.385 190.277 403.045 195.807 390.075 207.637C380.165 208.167 361.945 209.497 361.305 209.497V209.497ZM392.165 223.437C404.025 223.087 412.455 221.287 417.905 238.107L419.705 244.767C426.615 275.867 416.935 314.507 395.865 333.197C377.215 349.737 364.095 325.527 361.765 312.627C355.885 280.127 358.735 265.207 375.725 235.667C380.365 227.607 385.505 223.637 392.165 223.437V223.437Z" fill="#303232"/>
<path id="line1424" d="M108.905 411.957L108.875 411.897" stroke="black" stroke-width="1.6725" stroke-linejoin="bevel"/>
<path id="line1490" d="M154.265 438.387L154.245 438.377" stroke="black" stroke-width="0.69518" stroke-linejoin="bevel"/>
<path id="line1540" d="M153.415 361.047L153.325 361.357" stroke="black" stroke-width="1.6725" stroke-linejoin="bevel"/>
<path id="path1558" d="M166.115 346.607L166.025 346.917M159.765 353.827L159.675 354.137L159.765 353.827Z" stroke="black" stroke-width="1.6725" stroke-linejoin="bevel"/>
<path id="line1598" d="M153.355 361.407L153.325 361.357" stroke="black" stroke-width="1.6725" stroke-linejoin="bevel"/>
<path id="path1602" d="M185.175 324.947L185.075 325.257M178.815 332.167L178.725 332.477L178.815 332.167Z" stroke="black" stroke-width="1.6725" stroke-linejoin="bevel"/>
<path id="line1630" d="M159.705 354.187L159.675 354.137" stroke="black" stroke-width="1.6725" stroke-linejoin="bevel"/>
<path id="line1652" d="M166.055 346.967L166.025 346.917" stroke="black" stroke-width="1.6725" stroke-linejoin="bevel"/>
<path id="line1702" d="M178.755 332.527L178.725 332.477" stroke="black" stroke-width="1.6725" stroke-linejoin="bevel"/>
<path id="polyline1776" d="M66.033 435.574L65.5041 435.712" stroke="black" stroke-width="0.69518" stroke-linejoin="bevel"/>
<path id="polyline1778" d="M66.2165 435.574L65.6876 435.712" stroke="black" stroke-width="1.67245" stroke-linejoin="bevel"/>
<path id="path1782" d="M66.7859 435.587L66.5309 435.647M66.6279 435.547L66.3719 435.607L66.6279 435.547Z" stroke="black" stroke-width="0.69518" stroke-linejoin="bevel"/>
<path id="path2026" d="M245.105 279.127L245.055 279.117C245.025 279.117 244.995 279.127 244.965 279.127" stroke="black" stroke-width="1.6725" stroke-linejoin="bevel"/>
<path id="path2150" d="M65.5049 435.707L65.5829 435.697C65.6179 435.697 65.6529 435.697 65.6889 435.707" stroke="black" stroke-width="1.6725" stroke-linejoin="bevel"/>
<path id="path2262" d="M65.5479 434.387C65.5169 434.357 65.4859 434.317 65.4449 434.297L65.4269 434.287M65.5469 434.387C65.4879 434.347 65.4299 434.307 65.3679 434.267C65.3179 434.237 65.2659 434.217 65.2129 434.187L65.5469 434.387Z" stroke="black" stroke-width="1.6725" stroke-linejoin="bevel"/>
<path id="path2302" d="M179.685 331.177C179.725 331.167 179.765 331.147 179.805 331.137C179.845 331.117 179.885 331.107 179.935 331.097C179.975 331.077 180.015 331.057 180.065 331.047" stroke="black" stroke-width="1.6725" stroke-linejoin="bevel"/>
<path id="path2310" d="M166.985 345.617C167.025 345.607 167.065 345.587 167.105 345.577C167.145 345.557 167.185 345.547 167.235 345.527C167.275 345.517 167.315 345.497 167.355 345.487" stroke="black" stroke-width="1.6725" stroke-linejoin="bevel"/>
<path id="path2314" d="M160.635 352.837C160.675 352.827 160.715 352.807 160.755 352.797C160.795 352.777 160.835 352.767 160.885 352.747C160.925 352.737 160.965 352.717 161.005 352.707" stroke="black" stroke-width="1.6725" stroke-linejoin="bevel"/>
<path id="path2318" d="M154.285 360.057C154.325 360.047 154.365 360.027 154.405 360.017C154.445 359.997 154.485 359.987 154.525 359.977C154.575 359.957 154.615 359.937 154.655 359.927" stroke="black" stroke-width="1.6725" stroke-linejoin="bevel"/>
<path id="path2322" d="M141.585 374.497C141.625 374.487 141.665 374.467 141.705 374.457C141.745 374.437 141.785 374.427 141.825 374.407C141.875 374.397 141.915 374.387 141.955 374.367" stroke="black" stroke-width="1.6725" stroke-linejoin="bevel"/>
<path id="path2326" d="M128.885 388.937C128.925 388.927 128.965 388.907 129.005 388.897C129.045 388.887 129.085 388.867 129.125 388.857C129.175 388.837 129.215 388.827 129.255 388.807" stroke="black" stroke-width="1.6725" stroke-linejoin="bevel"/>
<path id="path2338" d="M109.835 410.597C109.875 410.587 109.915 410.567 109.955 410.557C109.995 410.537 110.035 410.527 110.075 410.517C110.125 410.497 110.165 410.487 110.205 410.467" stroke="black" stroke-width="1.6725" stroke-linejoin="bevel"/>
<path id="path2414" d="M166.995 346.147C167.055 346.087 167.105 346.017 167.135 345.937C167.155 345.877 167.155 345.807 167.125 345.747C167.105 345.697 167.045 345.657 166.985 345.617M167.555 346.327C167.625 346.217 167.695 346.107 167.705 345.987C167.725 345.887 167.705 345.767 167.645 345.687C167.575 345.597 167.465 345.537 167.365 345.487L167.555 346.327ZM166.995 346.147C167.055 346.167 167.105 346.187 167.165 346.207C167.225 346.227 167.295 346.247 167.355 346.267C167.415 346.287 167.485 346.307 167.555 346.327L166.995 346.147Z" stroke="black" stroke-width="1.6725" stroke-linejoin="bevel"/>
<path id="path2418" d="M160.645 353.367C160.695 353.307 160.755 353.237 160.785 353.157C160.805 353.097 160.805 353.027 160.775 352.967C160.755 352.917 160.695 352.877 160.635 352.837M160.645 353.367C160.695 353.387 160.755 353.407 160.815 353.427C160.875 353.447 160.945 353.467 161.005 353.487C161.065 353.507 161.135 353.527 161.205 353.547L160.645 353.367Z" stroke="black" stroke-width="1.6725" stroke-linejoin="bevel"/>
<path id="path2422" d="M154.295 360.587C154.355 360.527 154.405 360.467 154.435 360.377C154.455 360.317 154.455 360.247 154.425 360.187C154.405 360.137 154.345 360.097 154.285 360.057M154.855 360.767C154.925 360.657 154.995 360.547 155.005 360.427C155.025 360.327 155.005 360.207 154.945 360.117C154.875 360.037 154.765 359.977 154.655 359.927L154.855 360.767ZM154.295 360.587C154.355 360.607 154.405 360.627 154.465 360.647C154.525 360.667 154.595 360.687 154.655 360.707C154.715 360.727 154.785 360.747 154.855 360.767L154.295 360.587Z" stroke="black" stroke-width="1.6725" stroke-linejoin="bevel"/>
<path id="path2436" d="M141.595 375.027C141.645 374.967 141.705 374.907 141.735 374.817C141.755 374.757 141.755 374.687 141.725 374.627C141.705 374.577 141.645 374.537 141.585 374.497M142.155 375.207C142.225 375.097 142.295 374.987 142.305 374.867C142.325 374.767 142.305 374.647 142.245 374.567C142.175 374.477 142.065 374.417 141.955 374.367L142.155 375.207ZM141.595 375.027C141.655 375.047 141.705 375.067 141.765 375.087C141.825 375.107 141.885 375.127 141.955 375.147C142.015 375.167 142.085 375.187 142.155 375.207L141.595 375.027Z" stroke="black" stroke-width="1.6725" stroke-linejoin="bevel"/>
<path id="path2482" d="M109.835 411.127L110.015 411.187C110.075 411.207 110.135 411.227 110.205 411.247C110.265 411.267 110.335 411.287 110.395 411.307M110.395 411.307C110.465 411.197 110.535 411.087 110.555 410.967C110.575 410.867 110.555 410.747 110.495 410.667C110.425 410.577 110.315 410.517 110.205 410.467L110.395 411.307Z" stroke="black" stroke-width="0.4188" stroke-linejoin="bevel"/>
<path id="path2484" d="M109.835 411.127C109.895 411.067 109.955 410.997 109.985 410.927C110.005 410.857 110.005 410.787 109.975 410.727C109.945 410.677 109.895 410.637 109.835 410.597" stroke="black" stroke-width="1.6725" stroke-linejoin="bevel"/>
<path id="path2486" d="M154.975 425.787C155.015 425.827 155.055 425.867 155.105 425.897C155.145 425.937 155.195 425.977 155.235 426.017C155.275 426.067 155.325 426.107 155.365 426.147M154.035 426.107C154.025 426.167 154.015 426.217 154.005 426.277C154.005 426.337 153.995 426.387 153.985 426.447C153.985 426.507 153.975 426.567 153.975 426.637C154.135 426.637 154.295 426.647 154.455 426.627C154.635 426.597 154.805 426.537 154.965 426.447C155.105 426.367 155.235 426.257 155.365 426.157L154.035 426.107Z" stroke="black" stroke-width="0.4188" stroke-linejoin="bevel"/>
<path id="path2508" d="M91.9009 414.487C128.825 424.107 169.105 392.547 181.855 343.997C194.605 295.437 175.005 248.267 138.075 238.637" stroke="black" stroke-width="0.69518" stroke-linecap="round"/>
<path id="path2510" d="M138.075 238.637C101.155 229.007 60.8799 260.567 48.1279 309.127C35.3769 357.687 54.9749 404.857 91.9019 414.487" stroke="black" stroke-width="1.6725" stroke-linecap="round"/>
<path id="path2512" d="M178.355 276.907C169.835 256.417 154.915 243.887 137.865 239.447L138.295 237.827C155.465 242.307 170.255 255.877 178.835 276.527L178.355 276.907Z" fill="black"/>
<path id="path2514" d="M92.1139 413.677C110.405 418.447 129.695 413.407 145.825 400.777L146.065 401.347C129.635 414.217 110.325 420.147 91.6889 415.287L92.1139 413.677Z" fill="black"/>
<path id="path2518" d="M145.785 209.307C96.5349 196.467 42.8249 238.557 25.8249 303.317C8.81588 368.067 34.9529 430.977 84.1989 443.817" stroke="black" stroke-width="0.69518" stroke-linecap="round"/>
<path id="path2520" d="M145.565 210.117C121.115 203.737 95.3849 210.597 73.8289 227.497L73.5929 226.927C95.4549 209.797 121.205 202.037 145.995 208.497L145.565 210.117Z" fill="black"/>
<g id="front__wheel">
<path id="path30064" d="M102.675 201.917C56.0389 201.927 8.11889 253.717 2.43489 318.797C-5.02471 404.687 39.6379 445.477 101.045 445.477C162.455 445.477 203.575 388.807 207.215 328.717L209.895 298.057C202.945 233.977 164.205 205.137 106.045 202.007C104.925 201.947 103.795 201.917 102.675 201.917ZM117.205 236.757C137.895 236.287 157.085 248.727 166.575 271.727L169.715 280.817C181.755 323.347 164.875 376.177 128.145 401.727C95.6349 424.347 63.2109 410.217 49.6129 373.607C34.2859 332.347 48.8189 286.857 80.6919 255.237C90.7499 245.257 105.595 237.027 117.205 236.757Z" fill="#303232"/>
<path id="path2524" d="M156.795 255.577L108.395 301.887M64.3949 438.887C65.8119 439.247 67.2319 439.577 68.4539 439.817L64.3949 438.887ZM127.485 204.787C126.965 204.637 126.445 204.497 126.005 204.377C76.7569 191.537 23.0449 233.617 6.03489 298.377C-10.9791 363.127 15.1509 426.037 64.3939 438.877L127.485 204.787ZM65.1429 439.077L84.9379 444.007L65.1429 439.077ZM125.255 204.187L145.045 209.117L125.255 204.187ZM85.9709 412.557C121.455 416.647 156.835 385.297 168.655 340.707C180.675 294.937 163.955 250.407 130.815 237.277L85.9709 412.557ZM51.9009 377.617L103.125 340.077L51.9009 377.617ZM94.0249 336.737L47.5229 364.907L94.0249 336.737ZM44.7919 349.617L106.005 308.087L44.7919 349.617ZM44.2809 336.277L98.3349 340.557L44.2809 336.277ZM94.5049 326.227L67.2089 400.287L94.5049 326.227ZM58.5949 389.907L119.895 347.237L58.5949 389.907ZM105.525 347.717L77.7289 408.477L105.525 347.717ZM87.5719 413.157L105.525 347.717L87.5719 413.157ZM99.7749 413.117L123.255 358.697L99.7749 413.117ZM109.835 411.217L100.255 360.127L109.835 411.217ZM122.295 407.397L116.545 363.467L122.295 407.397ZM131.875 402.617L125.645 365.377L131.875 402.617ZM144.815 394.977L138.585 353.917L144.815 394.977ZM154.395 384.957L130.435 365.857L154.395 384.957ZM161.585 372.067L138.585 353.927L161.585 372.067ZM69.5879 267.987L98.3349 340.557L69.5879 267.987ZM60.6479 279.107L106.965 329.097L60.6479 279.107ZM54.4209 291.157L112.235 312.867L54.4209 291.157ZM48.7309 306.917L112.235 312.867L48.7309 306.917ZM45.5229 321.817L103.125 340.077L45.5229 321.817ZM78.0799 257.187L118.935 301.887L78.0799 257.187ZM91.3769 246.937L114.145 318.117L91.3769 246.937ZM102.355 241.377L111.755 331.007L102.355 241.377ZM113.525 238.037L104.085 333.867L113.525 238.037ZM124.505 236.927L114.145 318.117L124.505 236.927ZM126.435 236.957L129.475 317.637L126.435 236.957ZM140.075 239.197L112.235 312.867L140.075 239.197ZM148.165 246.507L120.375 311.427L148.165 246.507Z" stroke="black" stroke-width="1.6725" stroke-linecap="round"/>
</g>
<g id="path2526">
<path d="M113.735 374.417C131.835 379.137 151.565 363.667 157.815 339.877C164.065 316.087 154.455 292.967 136.365 288.257C118.275 283.537 98.5349 298.997 92.2909 322.797C86.0429 346.587 95.6449 369.697 113.735 374.417" fill="white"/>
<path d="M113.735 374.417C131.835 379.137 151.565 363.667 157.815 339.877C164.065 316.087 154.455 292.967 136.365 288.257C118.275 283.537 98.5349 298.997 92.2909 322.797C86.0429 346.587 95.6449 369.697 113.735 374.417" stroke="black" stroke-width="1.6725" stroke-linecap="round"/>
</g>
<g id="path28300">
<path d="M158.935 336.107C155.445 359.647 138.015 376.727 119.585 374.687C101.145 372.637 88.3599 352.207 90.7139 328.537C93.0669 304.867 109.705 286.527 128.285 287.117C146.875 287.697 160.675 307.007 159.465 330.707" fill="#857979"/>
<path d="M158.935 336.107C155.445 359.647 138.015 376.727 119.585 374.687C101.145 372.637 88.3599 352.207 90.7139 328.537C93.0669 304.867 109.705 286.527 128.285 287.117C146.875 287.697 160.675 307.007 159.465 330.707" stroke="#140000" stroke-width="0.77778"/>
</g>
<path id="path2528" d="M140.715 289.817C123.875 289.267 107.875 304.437 102.355 325.177C96.6449 346.907 104.155 368.067 119.455 375.237" stroke="black" stroke-width="0.69518" stroke-linecap="round"/>
<path id="polygon2530" d="M146.3 287.172L139.126 314.573L104.088 333.873L146.3 287.172Z" fill="white"/>
<path id="polyline2532" d="M146.3 287.172L139.126 314.573L104.088 333.873" stroke="black" stroke-width="0.69518" stroke-linecap="round"/>
<path id="polygon2534" d="M135.939 321.318L129.17 339.979L140.725 349.506L154.667 350.302L135.939 321.318Z" fill="white"/>
<path id="polyline2536" d="M135.939 321.318L129.17 339.979L140.725 349.506L154.667 350.302" stroke="black" stroke-width="0.69518" stroke-linecap="round"/>
<path id="polygon2538" d="M183.351 238.337L150.681 318.939L183.351 238.337Z" fill="white"/>
<path id="line2540" d="M183.355 238.337L150.685 318.937" stroke="black" stroke-width="0.69518" stroke-linecap="round"/>
<path id="path2542" d="M239.768 228.807C239.768 228.807 224.568 228.307 217.978 225.277C211.388 222.247 210.878 220.227 207.328 206.087C203.788 191.947 185.228 126.527 127.448 127.037M58.8349 152.057C58.8349 152.057 58.8349 157.107 77.5869 149.527C96.3349 141.957 131.345 116.247 164.255 124.277C189.085 130.337 217.975 152.057 226.085 176.297C234.195 200.527 232.665 225.777 239.765 228.807L58.8349 152.057ZM58.8349 152.057C54.7809 149.027 57.3149 145.487 69.4779 135.387C81.6409 125.287 125.225 86.9102 188.078 115.697C250.918 144.477 243.318 227.797 239.768 228.817L58.8349 152.057Z" stroke="black" stroke-width="1.6725" stroke-linecap="round"/>
<path id="path2544" d="M228.615 131.857L186.545 245.477C186.545 245.477 177.335 211.047 177.385 214.127L214.935 126.297C214.935 126.297 221.015 121.757 228.615 131.857Z" fill="url(#paint15_linear_2_2)" stroke="black" stroke-width="1.6725" stroke-linecap="round"/>
<path id="polyline2548" d="M177.381 214.121L147.898 282.806L137.133 283.603L126.772 312.587L103.269 330.452" stroke="black" stroke-width="1.67245" stroke-linecap="round"/>
<path id="path2550" d="M103.275 330.447C103.275 330.447 102.475 350.697 106.855 355.067" stroke="black" stroke-width="0.69518" stroke-linecap="round"/>
<path id="path2552" d="M106.855 355.067C111.235 359.427 160.645 359.037 160.645 359.037L163.035 353.077L155.865 345.537L161.045 340.767L162.635 318.937L188.935 251.047L187.735 219.677C187.735 219.677 186.945 217.297 177.385 214.127" stroke="black" stroke-width="1.6725" stroke-linecap="round"/>
<path id="polygon2554" d="M135.831 206.658L162.798 137.442L135.831 206.658Z" fill="white"/>
<path id="line2556" d="M135.825 206.657L162.795 137.437" stroke="black" stroke-width="1.6725" stroke-linecap="round"/>
<path id="polygon2558" d="M153.394 211.948L176.286 149.653L153.394 211.948Z" fill="white"/>
<path id="path2560" d="M235.255 116.337L259.125 51.0952M153.395 211.947L176.285 149.657L153.395 211.947ZM120.815 237.477L87.8309 323.687C87.8309 323.687 86.8749 332.737 90.6999 336.077L120.815 237.477ZM160.645 359.037L168.895 362.827L160.645 359.037ZM161.045 340.767L174.845 345.597L161.045 340.767ZM162.405 329.437L177.545 333.207L162.405 329.437ZM162.405 329.437L175.925 318.127L162.405 329.437ZM166.735 312.197L175.925 304.657L166.735 312.197ZM184.445 49.0572C191.265 34.1062 256.395 26.9712 249.915 47.3582C243.435 67.7442 222.635 118.377 222.635 118.377C222.635 118.377 222.975 125.507 193.985 118.037L184.445 49.0572ZM184.445 49.0572L168.415 107.497L184.445 49.0572ZM236.615 118.707L231.495 132.647L228.085 135.017L236.615 118.707ZM236.615 118.707C236.615 118.707 236.275 114.297 227.065 111.237L236.615 118.707Z" stroke="black" stroke-width="1.6725" stroke-linecap="round"/>
<path id="path2562" d="M180.515 27.2752C180.515 28.5262 210.175 22.0642 210.175 36.4482M186.955 28.9452C210.805 37.7012 209.545 126.507 143.645 282.235L186.955 28.9452Z" stroke="black" stroke-width="2.792" stroke-linecap="round"/>
<path id="path2564" d="M303.075 14.2052L282.675 15.9474C282.675 15.9474 281.315 16.1313 278.955 17.1497C276.585 18.1767 272.015 20.5397 266.775 26.5617L264.825 28.8537C262.615 31.4707 260.215 34.7217 257.155 36.5197C256.855 36.6917 256.575 36.8887 256.245 36.9257M304.085 26.6272L285.125 28.1702C285.125 28.1702 281.255 28.9422 276.225 34.7252C271.195 40.5092 264.615 49.7632 255.715 49.3772L304.085 26.6272Z" stroke="black" stroke-width="1.6725" stroke-linecap="round"/>
<path id="path2566" d="M257.155 36.5182C252.235 38.5802 249.755 50.1152 259.125 51.0952" stroke="black" stroke-width="0.69518" stroke-linecap="round"/>
<path id="path2568" d="M354.835 22.2988C359.625 21.9098 357.765 11.6778 353.465 11.2878M303.075 14.2047C297.505 16.6032 298.285 26.2427 304.085 26.6267L303.075 14.2047ZM300.605 17.3727L316.085 16.6027L300.605 17.3727ZM301.035 24.6677L317.255 23.6127L301.035 24.6677ZM323.435 14.2888C322.665 8.50471 315.695 5.80581 316.475 20.0717L323.435 14.2888ZM316.695 20.4307C316.695 20.4307 319.955 37.8097 324.985 25.4707L316.695 20.4307ZM303.075 14.2047C303.075 14.2047 305.075 13.251 305.715 16.7592L303.075 14.2047ZM304.625 26.8992C304.685 26.8992 305.965 26.4532 306.225 24.9862L304.625 26.8992ZM321.225 13.7802L353.465 11.2868L321.225 13.7802ZM322.265 25.4168L354.835 22.2978L322.265 25.4168Z" stroke="black" stroke-width="1.6725" stroke-linecap="round"/>
<path id="path2570" d="M321.825 17.5806C320.395 19.4806 320.635 21.1436 321.345 22.5696M353.465 11.2866C350.195 14.7297 351.125 20.8392 354.835 22.2976L353.465 11.2866Z" stroke="black" stroke-width="0.69518" stroke-linecap="round"/>
<path id="path2572" d="M265.285 284.296L289.915 277.646L289.395 254.646L264.255 249.026M275.155 18.5592C275.155 18.5592 232.885 22.4382 231.495 34.9062L275.155 18.5592ZM266.355 27.0612C266.015 27.1142 265.675 27.1692 265.335 27.2252C258.055 28.4192 248.395 30.3942 242.075 33.6722C240.585 34.4442 239.235 35.1012 238.655 36.1312L266.355 27.0612ZM178.235 27.6562C178.235 27.6562 197.215 24.6292 202.155 37.8702L178.235 27.6562ZM179.475 35.3742C179.475 35.3742 181.025 35.1462 183.225 35.1772C185.985 35.2162 189.975 35.4732 192.805 37.7792C193.655 38.4642 194.345 39.3832 194.795 40.5912L179.475 35.3742ZM178.235 27.6562C174.055 28.4132 175.715 35.5702 179.475 35.3742L178.235 27.6562ZM180.515 27.2772C178.235 21.6032 170.655 23.5542 170.655 31.1432C170.655 38.7942 176.835 43.0772 183.225 35.1772L180.515 27.2772ZM170.875 36.7122L156.135 38.0232C155.605 40.9102 148.765 39.8602 149.285 31.7262C149.815 23.5932 155.875 24.6422 156.665 26.2162C157.455 27.7902 171.405 25.9542 171.405 25.9542L170.875 36.7122ZM260.765 33.7102C260.765 33.7102 245.605 29.7032 243.125 36.1762L260.765 33.7102ZM239.765 228.806L258.105 252.086C258.105 252.086 258.105 296.556 285.805 296.046C313.505 295.536 330.955 286.846 330.955 286.846L239.765 228.806ZM279.135 296.046C278.625 296.046 236.555 287.356 236.555 287.356C236.555 287.356 222.705 277.136 221.165 249.026L229.955 228.736L279.135 296.046ZM222.195 244.416L213.985 243.396L213.475 256.176L223.215 268.446L222.195 244.416Z" stroke="black" stroke-width="1.6725" stroke-linecap="round"/>
<path id="path2574" d="M283.755 256.177L284.785 277.647M264.265 249.027C264.265 249.027 260.665 270.487 266.315 281.227L264.265 249.027Z" stroke="black" stroke-width="0.69518" stroke-linecap="round"/>
<path id="path2576" d="M398.585 115.397C398.585 115.397 409.105 119.817 409.105 127.267C409.105 134.717 412.425 133.617 414.645 129.197C416.865 124.787 423.785 120.087 440.405 116.777C447.325 116.507 452.585 110.987 399.695 109.057M264.265 249.027L245.275 225.507L240.675 225.867L264.265 249.027ZM250.785 232.647L278.625 236.757C278.625 236.757 288.375 237.267 292.985 233.687C297.605 230.107 295.045 204.547 295.045 204.547L275.735 188.467L250.785 232.647ZM281.705 205.577C282.215 205.577 260.155 152.917 260.155 152.917C260.155 152.917 251.435 148.317 261.185 136.057C270.925 123.787 271.445 99.2482 265.285 94.6492L281.705 205.577ZM246.815 87.4912L269.355 104.693L246.815 87.4912ZM240.145 104.871C240.145 105.384 266.585 124.277 266.585 124.277C266.585 124.277 242.445 117.757 235.535 124.807L240.145 104.871ZM269.385 216.307C269.385 216.307 265.585 179.067 263.795 161.637L269.385 216.307ZM262.205 214.267L254.005 133.497L262.205 214.267ZM255.025 212.217L246.815 130.937L255.025 212.217ZM247.335 212.217L239.635 128.387L247.335 212.217ZM237.865 178.717C236.015 160.687 232.455 125.827 232.455 125.827L237.865 178.717ZM265.285 94.6482L267.585 89.7372C267.585 89.7372 277.275 93.6012 278.945 101.327C280.605 109.057 281.985 112.637 280.605 120.367C280.605 120.367 288.355 108.227 295.005 113.467C301.645 118.717 327.405 140.237 327.405 140.237C327.405 140.237 334.605 145.207 327.405 147.967C327.405 147.967 324.635 152.107 316.885 146.857C309.125 141.617 299.985 130.027 282.815 144.927L265.285 94.6482ZM273.405 93.8762C280.605 92.4972 283.925 92.7722 291.125 100.224C298.325 107.677 312.725 118.717 329.065 116.227C345.405 113.747 360.085 110.707 367.015 108.507C373.935 106.295 385.565 106.847 393.045 107.677C400.525 108.507 403.015 113.747 389.995 120.917C376.985 128.097 373.105 134.717 369.775 147.407C366.455 160.107 358.705 211.987 346.515 215.577L273.405 93.8762ZM363.685 208.947L387.505 208.127C387.505 208.127 389.995 208.677 394.985 203.987C399.965 199.297 440.955 157.627 432.375 119.267L363.685 208.947Z" stroke="black" stroke-width="1.6725" stroke-linecap="round"/>
<path id="path2578" d="M278.665 124.237C278.665 124.507 275.895 135.267 266.755 141.337" stroke="black" stroke-width="0.69518" stroke-linecap="round"/>
<path id="path2580" d="M273.405 93.8762C273.405 93.8762 277.555 86.7022 273.675 83.1142C269.795 79.5272 256.225 68.4882 247.925 81.7352" stroke="black" stroke-width="1.6725" stroke-linecap="round"/>
<path id="path2582" d="M256.785 59.1072C256.785 59.1072 270.075 63.7982 266.755 76.4922" stroke="black" stroke-width="2.792" stroke-linecap="round"/>
<path id="path2584" d="M363.685 208.947C358.585 212.017 354.015 223.407 362.705 248.467M300.515 138.217C300.515 138.217 335.265 175.117 341.215 200.177C347.155 225.237 346.695 239.357 344.865 248.007L300.515 138.217ZM347.155 243.457C348.525 243.907 362.705 248.467 362.705 248.467L347.155 243.457Z" stroke="black" stroke-width="1.6725" stroke-linecap="round"/>
<path id="line2586" d="M359.955 212.477L356.755 203.817" stroke="black" stroke-width="0.69518" stroke-linecap="round"/>
<g id="path28303">
<path d="M425.615 279.957C425.615 299.717 411.105 315.147 395.905 311.257C380.865 307.417 375.215 300.997 375.215 281.237C375.215 261.487 380.965 248.187 396.545 249.937C419.375 252.507 423.615 257.487 425.395 275.557" fill="#857979"/>
<path d="M425.615 279.957C425.615 299.717 411.105 315.147 395.905 311.257C380.865 307.417 375.215 300.997 375.215 281.237C375.215 261.487 380.965 248.187 396.545 249.937C419.375 252.507 423.615 257.487 425.395 275.557" stroke="#140000" stroke-width="0.46403"/>
</g>
<path id="path2588" d="M344.865 248.007L407.055 271.247L413.455 276.257H421.685L424.425 284.007L417.565 290.377L345.785 268.057L339.835 266.687V273.067C339.835 273.067 331.155 279.447 331.605 279.447C332.065 279.447 330.955 286.847 330.955 286.847" stroke="black" stroke-width="1.6725" stroke-linecap="round"/>
<path id="path2590" d="M345.785 263.957L348.525 253.027M341.215 263.047L343.955 252.107L341.215 263.047Z" stroke="black" stroke-width="0.69518" stroke-linecap="round"/>
<path id="path2592" d="M282.815 144.927C309.205 174.207 333.435 201.087 334.805 221.587C336.185 242.087 326.575 250.287 328.405 255.757C330.235 261.227 327.035 269.427 323.835 272.617" stroke="black" stroke-width="1.6725" stroke-linecap="round"/>
<path id="path2594" d="M285.155 142.837C303.805 163.537 321.365 183.067 330.715 200.017C334.935 207.667 337.505 214.837 337.945 221.377C338.825 234.497 335.455 242.837 333.095 248.647C332.225 250.797 331.465 252.497 331.335 253.967C331.305 254.257 331.305 254.517 331.395 254.767C332.075 256.807 332.235 259.167 331.955 261.557C331.465 265.807 329.605 270.187 327.525 273.087L285.155 142.837ZM337.145 257.637C338.625 257.907 340.205 256.067 340.685 253.517C341.155 250.967 340.345 248.687 338.875 248.407C337.395 248.137 335.815 249.977 335.335 252.527C334.865 255.077 335.675 257.367 337.145 257.637Z" stroke="black" stroke-width="0.69518" stroke-linecap="round"/>
<path id="path2612" d="M314.555 281.487C310.445 282.847 311.815 284.667 307.245 285.807C302.685 286.937 304.055 290.357 305.195 291.487M311.125 279.887C306.105 279.887 308.615 282.397 303.825 284.217C299.025 286.037 301.535 286.717 301.085 288.537C300.625 290.357 298.345 292.177 298.115 289.667C297.885 287.167 295.605 286.947 291.495 287.397C287.385 287.857 277.345 286.037 280.535 281.257L311.125 279.887Z" stroke="black" stroke-width="0.69518" stroke-linecap="round"/>
<path id="path31940" d="M281.705 205.577C281.705 205.577 286.255 204.907 286.455 210.037C286.665 215.177 281.715 218.877 280.685 218.057C279.655 217.237 279.235 221.957 267.275 219.697C255.315 217.437 242.535 215.997 243.355 216.407" stroke="black" stroke-width="1.114" stroke-linecap="round"/>
<path id="path2618" d="M403.835 311.057C413.175 312.547 422.845 300.687 425.435 284.567C428.025 268.447 422.545 254.167 413.205 252.677M313.505 181.807C310.755 178.607 305.845 181.397 305.935 189.357C306.025 197.137 311.435 194.387 309.145 199.417C306.855 204.447 323.835 205.357 323.835 205.357L323.605 235.997L313.505 181.807Z" stroke="black" stroke-width="1.6725" stroke-linecap="round"/>
<path id="path2620" d="M391.215 282.187C389.705 297.317 395.225 309.647 403.835 311.057M413.205 252.677C406.515 251.607 399.655 257.387 395.275 266.847L413.205 252.677Z" stroke="black" stroke-width="0.69518" stroke-linecap="round"/>
<path id="path2622" d="M413.075 253.497C408.535 252.777 403.775 254.927 399.975 259.587L399.775 259.057C403.795 254.127 408.535 251.087 413.335 251.847L413.075 253.497Z" fill="black"/>
<path id="path2624" d="M393.425 300.387C395.785 306.537 399.685 309.557 403.965 310.237L403.695 311.887C399.315 311.187 395.475 307.117 393.065 300.817L393.425 300.387" fill="black"/>
<path id="path2626" d="M403.835 311.057L386.645 307.557M413.205 252.677L393.675 250.337L413.205 252.677Z" stroke="black" stroke-width="1.6725" stroke-linecap="round"/>
<path id="path2628" d="M400.675 251.177C399.155 250.047 397.545 249.387 396.015 249.167" stroke="black" stroke-width="0.69518" stroke-linecap="round"/>
<path id="path2630" d="M374.025 278.687C372.515 293.807 378.035 306.137 386.645 307.557M396.015 249.167C389.925 248.197 383.695 252.907 379.315 260.887L396.015 249.167Z" stroke="black" stroke-width="1.6725" stroke-linecap="round"/>
<path id="path2632" d="M400.565 251.497C399.065 250.387 397.395 250.207 395.885 249.997L396.155 248.347C397.695 248.567 399.245 249.717 400.785 250.857L400.565 251.497" fill="black"/>
<path id="path2634" d="M385.475 340.637C403.685 343.117 422.115 318.287 426.645 285.177C431.175 252.077 420.085 223.227 401.875 220.757" stroke="black" stroke-width="0.69518" stroke-linecap="round"/>
<path id="path2636" d="M361.215 272.857C361.015 274.037 360.835 275.207 360.695 276.217C356.165 309.327 367.255 338.167 385.465 340.637M401.875 220.757C387.765 218.837 373.515 233.317 365.575 255.747L401.875 220.757Z" stroke="black" stroke-width="1.6725" stroke-linecap="round"/>
<path id="path2638" d="M422.625 241.707C417.815 229.197 410.155 222.727 401.765 221.587L401.995 219.927C410.475 221.087 418.095 228.607 422.955 241.257L422.625 241.707Z" fill="black"/>
<path id="path2640" d="M385.585 339.817C394.565 341.037 403.745 335.887 411.095 325.987L411.295 326.517C403.735 336.687 394.585 342.727 385.355 341.467L385.585 339.817Z" fill="black"/>
<path id="path2642" d="M381.965 366.247C407.955 369.777 434.275 334.337 440.735 287.097C447.205 239.847 431.375 198.677 405.385 195.147M375.945 336.527C387.265 336.707 398.285 326.747 405.975 311.177L375.945 336.527ZM415.055 253.147C412.905 237.687 407.185 226.357 399.685 220.587L415.055 253.147ZM392.895 309.117L371.405 330.907L392.895 309.117ZM386.645 338.697V307.557V338.697ZM389.765 309.117L400.705 330.137L389.765 309.117ZM400.705 312.227L394.845 333.247L400.705 312.227ZM374.535 293.937L374.925 333.637L374.535 293.937ZM378.045 303.667L365.545 316.897L378.045 303.667ZM390.945 250.337L385.085 226.987L390.945 250.337ZM389.375 224.257C389.375 224.647 379.315 260.887 379.315 260.887L389.375 224.257ZM375.705 238.657C376.095 239.047 385.865 251.897 385.865 251.897L375.705 238.657ZM390.945 250.337L402.265 223.087L390.945 250.337ZM395.625 221.927C396.015 221.927 400.675 251.177 400.675 251.177L395.625 221.927ZM396.015 249.167L413.985 232.827L396.015 249.167ZM408.125 226.987L405.395 252.287L408.125 226.987Z" stroke="black" stroke-width="1.6725" stroke-linecap="round"/>
<path id="path2644" d="M347.345 269.507C347.065 271.187 346.805 272.867 346.615 274.307C340.145 321.557 355.975 362.717 381.965 366.247M405.385 195.147C404.705 195.057 404.025 194.987 403.445 194.957L405.385 195.147ZM374.665 208.567C368.285 215.207 362.795 223.677 358.575 232.807L374.665 208.567Z" stroke="black" stroke-width="0.69518" stroke-linecap="round"/>
<path id="path2646" d="M352.285 336.447C359.165 354.327 370.085 363.787 382.075 365.427L381.855 367.077C369.765 365.437 358.885 354.917 351.955 336.897L352.285 336.447Z" fill="black"/>
<path id="path2648" d="M364.625 364.067C364.725 364.087 364.835 364.097 364.925 364.107" stroke="black" stroke-width="0.69518" stroke-linecap="round"/>
<path id="path2650" d="M364.885 364.097L382.225 366.287M327.915 288.167C326.585 329.627 342.285 360.827 364.625 364.067L327.915 288.167Z" stroke="black" stroke-width="1.6725" stroke-linecap="round"/>
<path id="path2516" d="M84.1989 443.817C133.445 456.657 187.159 414.567 204.159 349.807C221.169 285.057 195.029 222.147 145.789 209.307" stroke="black" stroke-width="1.6725" stroke-linecap="round"/>
<path id="path2546" d="M177.385 214.127L147.895 282.807L137.135 283.597L124.945 311.797L103.275 330.447C103.275 330.447 102.475 350.697 106.855 355.067C111.245 359.427 160.645 359.037 160.645 359.037L163.035 353.077L155.865 345.537L161.045 340.767L162.635 318.937L188.935 251.047L187.745 219.677C187.735 219.677 186.945 217.297 177.385 214.127V214.127Z" fill="white"/>
<path id="path28082" fill-rule="evenodd" clip-rule="evenodd" d="M176.925 214.187L188.525 219.007L189.445 250.807L163.405 317.487L160.665 341.967L156.465 346.157L163.625 353.477L161.455 359.767L107.755 357.477L104.095 348.627L102.675 330.277L124.985 311.137L137.105 283.237L147.895 282.987L176.925 214.187V214.187Z" fill="url(#paint16_linear_2_2)" stroke="black" stroke-width="0.98496"/>
<path id="path28308" fill-rule="evenodd" clip-rule="evenodd" d="M422.445 277.057L412.915 277.527L406.195 271.387L344.165 249.067C344.165 249.067 346.805 227.847 342.885 211.657C338.965 195.467 324.995 162.337 307.025 146.337C298.665 138.897 270.255 103.453 246.655 89.1502C239.895 99.3332 244.755 96.2722 241.615 104.467C265.785 123.087 277.155 135.027 306.465 170.897C336.095 207.157 337.065 214.827 334.755 234.817C333.355 246.967 328.385 251.007 328.805 256.207C329.155 260.557 330.955 263.127 325.235 270.547C319.505 277.977 327.325 285.637 303.525 285.707C300.725 285.717 303.035 287.547 307.435 293.157C318.255 292.357 329.915 286.527 329.915 286.527L331.675 278.647L338.715 272.587V265.247L416.025 290.197L422.835 284.697L422.445 277.057V277.057Z" fill="url(#paint17_linear_2_2)"/>
<path id="path31849" fill-rule="evenodd" clip-rule="evenodd" d="M330.385 143.507C330.385 143.507 293.715 112.597 292.645 112.287C291.355 111.907 288.255 111.737 286.795 113.257C285.535 114.557 282.235 118.657 282.235 118.657L281.015 118.807L280.935 113.257C280.935 113.257 279.965 99.6482 278.015 97.2182C276.065 94.7882 267.835 90.0612 267.835 90.0612L265.585 94.4862C265.585 94.4862 267.155 95.2742 268.255 98.6762C269.355 102.078 269.715 100.62 269.235 107.907C268.745 115.197 267.285 128.317 264.845 131.237C262.405 134.157 255.575 144.357 256.065 146.307C256.555 148.247 260.945 153.597 260.945 153.597L274.885 187.417L295.825 204.377C295.825 204.377 296.005 227.527 295.515 230.447C295.035 233.367 291.985 235.957 288.085 236.447C284.185 236.937 252.895 233.787 252.895 233.787L264.595 248.847L288.745 254.197L289.225 276.547L265.335 284.807C265.335 284.807 276.735 295.777 280.145 295.287C283.555 294.807 306.085 295.577 308.255 293.077C310.475 290.497 302.395 289.187 303.865 287.237C305.325 285.297 315.075 286.757 318.495 284.807C321.905 282.867 328.245 277.037 327.765 274.607C327.275 272.177 308.735 268.777 308.735 268.777L311.665 262.457C311.665 262.457 316.665 260.877 320.445 258.327C324.225 255.777 321.355 256.317 326.295 250.797C326.605 244.537 328.495 235.237 328.495 235.237H323.125C323.125 235.237 322.945 214.827 322.885 205.107C314.285 205.837 308.255 201.217 308.255 201.217C308.255 201.217 310.015 199.517 309.715 197.337C309.565 196.267 305.495 194.527 305.565 189.067C305.665 181.677 307.155 181.767 308.425 180.627C310.445 178.557 313.065 180.627 313.065 180.627L282.345 144.237C282.345 144.237 294.105 136.587 298.985 136.587C303.865 136.587 317.035 146.307 317.035 146.307C317.035 146.307 318.575 149.567 321.905 149.217C329.455 148.427 330.385 143.507 330.385 143.507V143.507Z" fill="url(#paint18_linear_2_2)"/>
<path id="path32005" fill-rule="evenodd" clip-rule="evenodd" d="M308.215 249.457C308.215 249.457 311.585 242.547 316.535 239.587C321.495 236.627 326.445 234.067 327.635 235.047C328.815 236.037 326.645 243.537 326.645 245.907C326.645 248.277 326.645 252.617 324.655 253.797C322.675 254.987 318.515 261.697 317.335 261.697C316.145 261.697 311.585 262.877 311.585 262.877L308.215 249.457V249.457Z" fill="url(#paint19_radial_2_2)" stroke="black" stroke-width="0.98496"/>
<path id="path31967" d="M310.295 265.857C308.345 273.757 302.915 279.237 298.165 278.087C293.415 276.937 291.135 269.597 293.075 261.687C295.005 253.787 300.435 248.297 305.185 249.437C309.945 250.587 312.235 257.917 310.295 265.827" fill="url(#paint20_radial_2_2)"/>
<path id="path31981" fill-rule="evenodd" clip-rule="evenodd" d="M309.605 269.397C309.605 269.397 307.425 273.737 306.235 275.117C305.045 276.497 301.485 278.467 301.485 278.467L324.065 281.627C324.065 281.627 326.645 280.247 327.235 278.277C327.825 276.297 327.235 272.157 325.455 271.957C323.665 271.757 309.015 269.587 309.605 269.397V269.397Z" fill="url(#paint21_radial_2_2)" stroke="black" stroke-width="0.98496"/>
<path id="path31991" d="M326.495 277.777C325.795 279.917 324.215 281.217 322.935 280.697C321.655 280.177 321.135 278.037 321.765 275.857C322.385 273.687 323.935 272.257 325.245 272.647C326.565 273.027 327.185 275.077 326.645 277.277" fill="url(#paint22_radial_2_2)"/>
<g id="g31950">
<g id="g31928">
<path id="path2596" d="M323.523 281.322C324.993 281.597 326.582 279.759 327.055 277.212C327.529 274.656 326.72 272.375 325.25 272.099" stroke="black" stroke-width="1.67245" stroke-linecap="round"/>
<path id="path2598" d="M325.25 272.099C323.77 271.824 322.181 273.673 321.707 276.219C321.234 278.766 322.043 281.056 323.523 281.332" stroke="black" stroke-width="0.69518" stroke-linecap="round"/>
<path id="path2600" d="M325.092 272.925C324.49 272.807 323.72 272.758 323.197 273.368L323.01 272.837C323.76 271.952 324.529 271.116 325.398 271.283L325.092 272.925Z" fill="black"/>
<path id="path2602" d="M322.063 279.405C322.398 280.329 323.039 280.388 323.671 280.506L323.365 282.148C322.635 282.01 322.072 280.909 321.698 279.837L322.063 279.405Z" fill="black"/>
<path id="path2604" d="M298.066 278.785C302.802 279.945 308.268 274.262 310.281 266.102C312.304 257.932 310.104 250.381 305.367 249.221M325.25 272.099L308.801 269.917L325.25 272.099ZM323.523 281.322L300.118 278.333L323.523 281.322Z" stroke="black" stroke-width="1.67245" stroke-linecap="round"/>
<g id="g31923">
<path id="path2606" d="M305.367 249.221C300.641 248.051 295.165 253.733 293.152 261.894C291.139 270.064 293.339 277.625 298.066 278.785" stroke="black" stroke-width="0.69518" stroke-linecap="round"/>
<path id="path2608" d="M305.17 250.027C302.94 249.476 300.414 250.164 298.322 252.337L298.164 251.787C300.493 249.368 303.078 247.795 305.575 248.405L305.17 250.027" fill="black"/>
<path id="path2610" d="M293.28 272.768C294.217 275.983 296.122 277.448 298.263 277.969L297.868 279.591C295.628 279.041 293.862 276.543 292.885 273.171L293.28 272.768Z" fill="black"/>
</g>
<path id="path2614" d="M311.307 262.631C311.307 262.631 317.928 261.953 319.981 259.456C322.033 256.948 326.148 251.04 326.148 251.04L328.2 235.8C328.2 235.8 325.457 232.615 316.103 240.116C306.739 247.628 307.883 249.447 308.11 250.813" stroke="black" stroke-width="1.67245" stroke-linecap="round"/>
</g>
<path id="path2616" d="M325.389 240.132L324.61 245.49C324.61 245.49 321.965 249.993 322.35 246.041C322.745 242.078 322.893 240.682 322.972 239.827C323.051 238.972 325.389 237.497 325.389 240.132" stroke="black" stroke-width="1.11398" stroke-linecap="round"/>
<path id="path31946" d="M318.147 241.842C317.052 242.855 315.887 242.934 317.052 244.792C318.226 246.66 319.706 249.069 319.933 246.041C320.17 243.012 319.854 240.84 318.147 241.842Z" stroke="black" stroke-width="1.11398" stroke-linecap="round"/>
<path id="path31944" d="M316.509 249.216C316.509 251.547 315.887 252.559 314.555 252.323C313.233 252.097 313.312 251.625 313.47 249.914C313.628 248.214 314.407 247.899 315.187 248.056C315.966 248.214 316.43 248.361 316.509 249.216" stroke="black" stroke-width="1.11398" stroke-linecap="round"/>
<path id="path31942" d="M314.249 258.537C314.93 258.655 315.631 257.957 315.798 256.964C315.976 255.981 315.552 255.086 314.871 254.968C314.19 254.85 313.49 255.548 313.322 256.531C313.144 257.524 313.559 258.419 314.249 258.537Z" stroke="black" stroke-width="1.11398" stroke-linecap="round"/>
</g>
<path id="path2619" d="M272.955 96.4112C276.325 104.881 276.275 114.017 275.485 120.437C275.275 123.047 273.515 127.297 273.445 128.767C274.855 126.857 278.565 124.527 278.745 122.987C274.795 119.727 279.235 100.658 272.955 96.4112V96.4112ZM292.685 119.237C300.265 120.997 307.215 125.897 311.685 132.707C313.535 132.597 317.225 138.297 319.985 136.607C312.185 129.447 305.245 121.277 292.685 119.237Z" fill="#F1FFFF" stroke="white" stroke-width="0.98496"/>
</g>
</g>
<defs>
<radialGradient id="paint0_radial_2_2" cx="0" cy="0" r="1" gradientUnits="userSpaceOnUse" gradientTransform="translate(418.26 117.726) rotate(-4.3244) scale(26.1499 14.0347)">
<stop stop-color="white"/>
<stop offset="1" stop-color="#96939E"/>
</radialGradient>
<linearGradient id="paint1_linear_2_2" x1="236.012" y1="22.0818" x2="237.394" y2="35.1091" gradientUnits="userSpaceOnUse">
<stop stop-color="white"/>
<stop offset="1" stop-color="#96939E"/>
</linearGradient>
<linearGradient id="paint2_linear_2_2" x1="238.795" y1="80.3073" x2="248.089" y2="84.2788" gradientUnits="userSpaceOnUse">
<stop stop-color="white"/>
<stop offset="1" stop-color="#96939E"/>
</linearGradient>
<linearGradient id="paint3_linear_2_2" x1="154.805" y1="164.977" x2="167.266" y2="169.745" gradientUnits="userSpaceOnUse">
<stop stop-color="white"/>
<stop offset="1" stop-color="#96939E"/>
</linearGradient>
<radialGradient id="paint4_radial_2_2" cx="0" cy="0" r="1" gradientUnits="userSpaceOnUse" gradientTransform="translate(92.2684 128.626) rotate(-23.7638) scale(40.5368 10.7422)">
<stop stop-color="white"/>
<stop offset="0.5" stop-color="white" stop-opacity="0.41237"/>
<stop offset="1" stop-color="white" stop-opacity="0"/>
</radialGradient>
<radialGradient id="paint5_radial_2_2" cx="0" cy="0" r="1" gradientUnits="userSpaceOnUse" gradientTransform="translate(386.222 161.831) rotate(-70.1766) scale(26.0882 9.81191)">
<stop stop-color="white"/>
<stop offset="0.5" stop-color="white" stop-opacity="0.41237"/>
<stop offset="1" stop-color="white" stop-opacity="0"/>
</radialGradient>
<radialGradient id="paint6_radial_2_2" cx="0" cy="0" r="1" gradientUnits="userSpaceOnUse" gradientTransform="translate(263.405 35.5801) rotate(-41.6202) scale(11.0711 3.94966)">
<stop stop-color="white"/>
<stop offset="0.5" stop-color="white" stop-opacity="0.41237"/>
<stop offset="1" stop-color="white" stop-opacity="0"/>
</radialGradient>
<radialGradient id="paint7_radial_2_2" cx="0" cy="0" r="1" gradientUnits="userSpaceOnUse" gradientTransform="translate(290.628 18.9595) rotate(-4.20048) scale(11.0886 3.94359)">
<stop stop-color="white"/>
<stop offset="0.5" stop-color="white" stop-opacity="0.41237"/>
<stop offset="1" stop-color="white" stop-opacity="0"/>
</radialGradient>
<radialGradient id="paint8_radial_2_2" cx="0" cy="0" r="1" gradientUnits="userSpaceOnUse" gradientTransform="translate(356.475 125.636) rotate(-23.7638) scale(40.5368 10.7422)">
<stop stop-color="white"/>
<stop offset="0.5" stop-color="white" stop-opacity="0.41237"/>
<stop offset="1" stop-color="white" stop-opacity="0"/>
</radialGradient>
<radialGradient id="paint9_radial_2_2" cx="0" cy="0" r="1" gradientUnits="userSpaceOnUse" gradientTransform="translate(334.256 131.018) rotate(-5.49508) scale(40.5591 10.7361)">
<stop stop-color="white"/>
<stop offset="0.5" stop-color="white" stop-opacity="0.41237"/>
<stop offset="1" stop-color="white" stop-opacity="0"/>
</radialGradient>
<radialGradient id="paint10_radial_2_2" cx="0" cy="0" r="1" gradientUnits="userSpaceOnUse" gradientTransform="translate(325.563 146.564) rotate(-51.5431) scale(36.3563 18.4205)">
<stop stop-color="white"/>
<stop offset="0.5" stop-color="white" stop-opacity="0.41237"/>
<stop offset="1" stop-color="white" stop-opacity="0"/>
</radialGradient>
<linearGradient id="paint11_linear_2_2" x1="184.515" y1="27.7273" x2="181.271" y2="40.1173" gradientUnits="userSpaceOnUse">
<stop stop-color="white"/>
<stop offset="1" stop-color="#96939E"/>
</linearGradient>
<linearGradient id="paint12_linear_2_2" x1="239.791" y1="90.0458" x2="275.353" y2="90.0458" gradientUnits="userSpaceOnUse">
<stop stop-color="#373936"/>
<stop offset="1" stop-color="#373936" stop-opacity="0"/>
</linearGradient>
<linearGradient id="paint13_linear_2_2" x1="212.232" y1="263.974" x2="289.216" y2="263.974" gradientUnits="userSpaceOnUse">
<stop stop-color="white"/>
<stop offset="1" stop-color="#96939E"/>
</linearGradient>
<linearGradient id="paint14_linear_2_2" x1="206.973" y1="270.699" x2="260.166" y2="255.042" gradientUnits="userSpaceOnUse">
<stop stop-color="white"/>
<stop offset="1" stop-color="#96939E"/>
</linearGradient>
<linearGradient id="paint15_linear_2_2" x1="200.411" y1="173.226" x2="212.8" y2="178.784" gradientUnits="userSpaceOnUse">
<stop stop-color="white"/>
<stop offset="1" stop-color="#96939E"/>
</linearGradient>
<linearGradient id="paint16_linear_2_2" x1="156.907" y1="271.171" x2="266.223" y2="322.351" gradientUnits="userSpaceOnUse">
<stop stop-color="white"/>
<stop offset="1" stop-color="#96939E"/>
</linearGradient>
<linearGradient id="paint17_linear_2_2" x1="335.878" y1="221.953" x2="372.396" y2="191.119" gradientUnits="userSpaceOnUse">
<stop stop-color="white"/>
<stop offset="1" stop-color="#96939E"/>
</linearGradient>
<linearGradient id="paint18_linear_2_2" x1="252.895" y1="193.273" x2="330.382" y2="193.273" gradientUnits="userSpaceOnUse">
<stop stop-color="#303232"/>
<stop offset="1" stop-color="white"/>
</linearGradient>
<radialGradient id="paint19_radial_2_2" cx="0" cy="0" r="1" gradientUnits="userSpaceOnUse" gradientTransform="translate(315.917 247.079) scale(10.3764 14.5131)">
<stop stop-color="#999699"/>
<stop offset="1" stop-color="#020000"/>
</radialGradient>
<radialGradient id="paint20_radial_2_2" cx="0" cy="0" r="1" gradientUnits="userSpaceOnUse" gradientTransform="translate(301.697 263.78) rotate(20.9705) scale(12.3059 20.8586)">
<stop stop-color="#999699"/>
<stop offset="1" stop-color="#020000"/>
</radialGradient>
<radialGradient id="paint21_radial_2_2" cx="0" cy="0" r="1" gradientUnits="userSpaceOnUse" gradientTransform="translate(314.478 275.508) rotate(10.1176) scale(31.3652 5.30195)">
<stop stop-color="#999699"/>
<stop offset="1" stop-color="#020000"/>
</radialGradient>
<radialGradient id="paint22_radial_2_2" cx="0" cy="0" r="1" gradientUnits="userSpaceOnUse" gradientTransform="translate(324.17 276.757) rotate(24.8855) scale(2.56884 4.14794)">
<stop stop-color="#999699"/>
<stop offset="1" stop-color="#020000"/>
</radialGradient>
</defs>
</svg>
